<?xml version="1.0" encoding="UTF-8"?>
<svg id="Layer_1" data-name="Layer 1" xmlns="http://www.w3.org/2000/svg" version="1.1" viewBox="0 0 355.1 197.5">
  <defs>
    <style>
      .cls-1 {
        fill: #8c288f;
      }

      .cls-1, .cls-2 {
        stroke-width: 0px;
      }

      .cls-2 {
        fill: #e53988;
      }
    </style>
  </defs>
  <path class="cls-1" d="M11.3,197.5l124.6-123.9c7.2-7.2,16.7-11.1,26.8-11.1s19.7,3.9,26.8,11.1l124.3,123.9h11.3L195.2,67.9c-17.9-17.9-47.1-17.9-65,0L0,197.5h11.3Z"/>
  <path class="cls-1" d="M73.3,197.5l62.6-62.2c7.2-7.2,16.7-11.1,26.8-11.1s19.7,3.9,26.8,11.1l62.3,62.2h11.3l-68-67.8c-8.7-8.7-20.2-13.5-32.5-13.5s-23.8,4.8-32.5,13.4l-68.3,67.8h11.4Z"/>
  <path class="cls-2" d="M355.1,57l-43.6-43.5c-17.9-17.9-47.1-17.9-65,0L61.4,197.5h11.3L252.2,19.1c14.8-14.8,38.9-14.8,53.7,0l49.3,49.2v-11.3Z"/>
  <path class="cls-2" d="M355.1,118.6l-43.6-43.4c-17.9-17.9-47.1-17.9-65,0l-123.8,122.3h11.4l118-116.7c7.2-7.2,16.7-11.1,26.8-11.1s19.7,3.9,26.8,11.1l49.3,49v-11.3Z"/>
</svg>