<svg xmlns="http://www.w3.org/2000/svg" width="23.071" height="23.066" viewBox="0 0 23.071 23.066">
  <path id="insta" d="M11.534,7.234a5.914,5.914,0,1,0,5.914,5.914A5.9,5.9,0,0,0,11.534,7.234Zm0,9.759a3.845,3.845,0,1,1,3.845-3.845,3.852,3.852,0,0,1-3.845,3.845Zm7.535-10a1.379,1.379,0,1,0-1.379,1.379A1.379,1.379,0,0,0,19.069,6.992Zm3.917,1.4a6.826,6.826,0,0,0-1.863-4.833A6.871,6.871,0,0,0,16.29,1.7c-1.9-.108-7.612-.108-9.517,0A6.861,6.861,0,0,0,1.94,3.554,6.849,6.849,0,0,0,.077,8.387c-.108,1.9-.108,7.612,0,9.517A6.826,6.826,0,0,0,1.94,22.736,6.88,6.88,0,0,0,6.773,24.6c1.9.108,7.612.108,9.517,0a6.826,6.826,0,0,0,4.833-1.863A6.871,6.871,0,0,0,22.986,17.9c.108-1.9.108-7.607,0-9.512Zm-2.46,11.555a3.892,3.892,0,0,1-2.193,2.193c-1.518.6-5.121.463-6.8.463s-5.286.134-6.8-.463a3.892,3.892,0,0,1-2.193-2.193c-.6-1.518-.463-5.121-.463-6.8s-.134-5.286.463-6.8A3.893,3.893,0,0,1,4.735,4.156c1.518-.6,5.121-.463,6.8-.463s5.286-.134,6.8.463a3.893,3.893,0,0,1,2.193,2.193c.6,1.518.463,5.121.463,6.8S21.128,18.434,20.525,19.947Z" transform="translate(0.004 -1.615)" fill="#fff"/>
</svg>
