<svg xmlns="http://www.w3.org/2000/svg" width="27.101" height="19.055" viewBox="0 0 27.101 19.055">
  <path id="you_tube" data-name="you tube" d="M28.035,10.982a3.405,3.405,0,0,0-2.4-2.412C23.525,8,15.05,8,15.05,8S6.576,8,4.462,8.57a3.405,3.405,0,0,0-2.4,2.412A35.722,35.722,0,0,0,1.5,17.547a35.722,35.722,0,0,0,.566,6.565,3.355,3.355,0,0,0,2.4,2.373c2.114.57,10.588.57,10.588.57s8.475,0,10.588-.57a3.355,3.355,0,0,0,2.4-2.373,35.722,35.722,0,0,0,.566-6.565A35.722,35.722,0,0,0,28.035,10.982ZM12.279,21.576V13.517l7.083,4.03-7.083,4.029Z" transform="translate(-1.5 -8)" fill="#fff"/>
</svg>
