<?xml version="1.0" encoding="UTF-8"?>
<svg xmlns="http://www.w3.org/2000/svg" version="1.1" viewBox="0 0 15.5 19.5">
  <g>
    <g id="Layer_1">
      <path fill="currentColor" d="M12.8,19.5H2.8c-1.5,0-2.8-1.2-2.8-2.8V2.8C0,1.2,1.2,0,2.8,0h5.6c.5,0,.9.2,1.2.5l5.4,5.4c.3.3.5.8.5,1.2v9.6c0,1.5-1.2,2.8-2.8,2.8ZM2.8,1.5c-.7,0-1.2.6-1.2,1.2v14c0,.7.6,1.2,1.2,1.2h10c.7,0,1.2-.6,1.2-1.2V7.2c0,0,0-.1,0-.2L8.5,1.6s-.1,0-.2,0H2.8ZM7.8,14.5c-.1,0-.2,0-.3,0,0,0-.2,0-.2-.2l-3-3c-.3-.3-.3-.8,0-1.1s.8-.3,1.1,0l1.7,1.7v-4.2c0-.4.3-.8.8-.8s.8.3.8.8v4.2l1.7-1.7c.3-.3.8-.3,1.1,0s.3.8,0,1.1l-3,3c0,0-.2.1-.2.2,0,0-.2,0-.3,0Z"/>
    </g>
  </g>
</svg>
