<svg xmlns="http://www.w3.org/2000/svg" width="30" height="30" viewBox="0 0 30 30">
  <path id="search_icon" data-name="search icon" d="M3.75,13.125A9.284,9.284,0,0,1,13.125,3.75,9.284,9.284,0,0,1,22.5,13.125,9.284,9.284,0,0,1,13.125,22.5,9.284,9.284,0,0,1,3.75,13.125ZM26.813,29.437a1.856,1.856,0,0,0,2.625-2.625L23.625,21a12.838,12.838,0,0,0,2.625-7.875A13.044,13.044,0,0,0,13.125,0,13.044,13.044,0,0,0,0,13.125,13.044,13.044,0,0,0,13.125,26.25,12.838,12.838,0,0,0,21,23.625Z" fill="#fff"/>
</svg>
