<svg id="UHY_logo" data-name="UHY logo" xmlns="http://www.w3.org/2000/svg" width="163.477" height="54.902" viewBox="0 0 163.477 54.902">
  <g id="UHY" transform="translate(0 -0.006)">
    <path id="Path_6300" data-name="Path 6300" d="M210.012.014l-7.944,13.97L194.179.014H182.071l14.574,24v14.1h10.684V23.846L221.9.014Zm-41.86,0V13.842H154.51V.014H143.882V38.109H154.51V24.287h13.642V38.109H178.78V.014Zm-39.093,0,0,20.308a7.453,7.453,0,1,1-14.906,0V.014H103.758V20.57a17.843,17.843,0,1,0,35.687,0L139.452.014Z" transform="translate(-58.424 -0.008)" fill="#007149"/>
    <path id="UHY-2" data-name="UHY" d="M210.012.014l-7.944,13.97L194.179.014H182.071l14.574,24v14.1h10.684V23.846L221.9.014Zm-41.86,0V13.842H154.51V.014H143.882V38.109H154.51V24.287h13.642V38.109H178.78V.014Zm-39.093,0,0,20.308a7.453,7.453,0,1,1-14.906,0V.014H103.758V20.57a17.843,17.843,0,1,0,35.687,0L139.452.014Z" transform="translate(-58.424 -0.008)" fill="#007149"/>
  </g>
  <path id="text" d="M103.759,107.922a3.615,3.615,0,0,0,6.678,1.9l-.807-.56a2.661,2.661,0,0,1-2.26,1.233,2.571,2.571,0,0,1-.026-5.138,2.575,2.575,0,0,1,2.23,1.264l.837-.585a3.6,3.6,0,0,0-6.653,1.891m9.982,3.591a2.569,2.569,0,1,0-2.62-2.568,2.546,2.546,0,0,0,2.62,2.568m-1.6-2.568a1.6,1.6,0,1,1,1.6,1.613,1.569,1.569,0,0,1-1.6-1.613m6.437,2.466v-2.779a1.265,1.265,0,0,1,1.361-1.289,1.144,1.144,0,0,1,1.212,1.289v2.779h1.017v-3a1.9,1.9,0,0,0-2.07-2.04,1.762,1.762,0,0,0-1.516.724v-.622h-1.022v4.932Zm6.1,0v-2.779a1.265,1.265,0,0,1,1.361-1.289,1.144,1.144,0,0,1,1.212,1.289v2.779h1.017v-3a1.9,1.9,0,0,0-2.071-2.04,1.761,1.761,0,0,0-1.515.724v-.622h-1.022v4.932Zm4.727-2.461a2.506,2.506,0,0,0,2.584,2.563,2.541,2.541,0,0,0,2.23-1.253l-.75-.545a1.659,1.659,0,0,1-1.48.843,1.455,1.455,0,0,1-1.531-1.32h3.827a2.473,2.473,0,0,0,.041-.473,2.3,2.3,0,0,0-2.373-2.389,2.479,2.479,0,0,0-2.548,2.574m1.079-.473a1.433,1.433,0,0,1,1.459-1.181,1.31,1.31,0,0,1,1.351,1.181Zm7.3,3.036a2.574,2.574,0,0,0,2.281-1.34l-.765-.54a1.72,1.72,0,0,1-1.516.925,1.613,1.613,0,0,1,.021-3.226,1.694,1.694,0,0,1,1.479.929l.786-.534a2.51,2.51,0,0,0-2.245-1.351,2.579,2.579,0,0,0-2.656,2.564,2.552,2.552,0,0,0,2.615,2.573m3.684-4.171v2.589a1.5,1.5,0,0,0,1.68,1.582,2.61,2.61,0,0,0,1.079-.215l-.134-.873a2.266,2.266,0,0,1-.8.17.718.718,0,0,1-.807-.786v-2.466h1.557v-.863h-1.567V104.9h-.991v1.582h-.894v.863Zm6.432,0v2.589a1.5,1.5,0,0,0,1.68,1.582,2.61,2.61,0,0,0,1.079-.215l-.133-.873a2.27,2.27,0,0,1-.8.17.718.718,0,0,1-.807-.786v-2.466h1.556v-.863h-1.567V104.9h-.991v1.582h-.894v.863Zm5.857,4.171a2.569,2.569,0,1,0-2.62-2.568,2.546,2.546,0,0,0,2.62,2.568m-1.6-2.568a1.6,1.6,0,1,1,1.6,1.613,1.569,1.569,0,0,1-1.6-1.613m7.834,4.521h1.018v-2.728a2.087,2.087,0,0,0,1.757.776,2.422,2.422,0,0,0,2.476-2.543,2.466,2.466,0,0,0-2.476-2.594,2.087,2.087,0,0,0-1.757.776v-.673h-1.018Zm1.022-4.5a1.634,1.634,0,0,1,1.629-1.68,1.6,1.6,0,0,1,1.582,1.68,1.553,1.553,0,0,1-1.582,1.629,1.594,1.594,0,0,1-1.629-1.629m7.691,2.543a2.569,2.569,0,1,0-2.62-2.568,2.546,2.546,0,0,0,2.62,2.568m-1.6-2.568a1.6,1.6,0,1,1,1.6,1.613,1.569,1.569,0,0,1-1.6-1.613m5.04,1.428a2.351,2.351,0,0,0,2.132,1.14c1.048,0,1.952-.58,1.952-1.479,0-.94-.7-1.289-1.772-1.552-.724-.174-1.089-.277-1.089-.652,0-.319.329-.524.817-.524a1.513,1.513,0,0,1,1.269.673l.683-.586a2.275,2.275,0,0,0-1.953-1.017c-1.007,0-1.824.575-1.824,1.469,0,.976.755,1.31,1.814,1.547.724.164,1.028.277,1.028.642,0,.334-.4.545-.925.545a1.55,1.55,0,0,1-1.377-.817Zm4.942,0a2.351,2.351,0,0,0,2.132,1.14c1.048,0,1.952-.58,1.952-1.479,0-.94-.7-1.289-1.773-1.552-.724-.174-1.089-.277-1.089-.652,0-.319.329-.524.817-.524a1.512,1.512,0,0,1,1.269.673l.683-.586a2.274,2.274,0,0,0-1.952-1.017c-1.007,0-1.824.575-1.824,1.469,0,.976.755,1.31,1.813,1.547.725.164,1.028.277,1.028.642,0,.334-.4.545-.925.545a1.551,1.551,0,0,1-1.377-.817Zm5.2-5.548a.629.629,0,1,0,.627-.627.6.6,0,0,0-.627.627m1.136,1.654H182.4v4.932h1.017Zm1.562,4.932H186v-.673a2.088,2.088,0,0,0,1.757.776,2.465,2.465,0,0,0,2.476-2.594,2.422,2.422,0,0,0-2.476-2.543,2.088,2.088,0,0,0-1.757.776v-2.975h-1.017ZM186,108.918a1.594,1.594,0,0,1,1.629-1.628,1.553,1.553,0,0,1,1.582,1.628,1.6,1.6,0,0,1-1.582,1.68,1.634,1.634,0,0,1-1.629-1.68m5.317-4.094a.629.629,0,1,0,.627-.627.6.6,0,0,0-.627.627m1.135,1.654h-1.017v4.932h1.017Zm2.579-2.3h-1.017v7.233h1.017Zm1.444.647a.629.629,0,1,0,.627-.627.6.6,0,0,0-.627.627m1.136,1.654H196.6v4.932h1.017Zm1.86.863v2.589a1.5,1.5,0,0,0,1.68,1.582,2.61,2.61,0,0,0,1.079-.215l-.133-.873a2.27,2.27,0,0,1-.8.17.718.718,0,0,1-.807-.786v-2.466h1.557v-.863h-1.567V104.9h-.991v1.582H198.6v.863Zm5.189,4.141-.108.282c-.221.576-.488.91-1.151.91a1.819,1.819,0,0,1-.662-.128l-.108.842a1.8,1.8,0,0,0,.817.18c1.2,0,1.628-.616,2.024-1.531l2.363-5.559h-1.12l-1.526,3.884-1.536-3.884h-1.12Z" transform="translate(-58.424 -58.666)" fill="#007149"/>
  <g id="shield" transform="translate(0 0)">
    <g id="Group_169557" data-name="Group 169557" transform="translate(0 0)">
      <g id="shield-2" data-name="shield">
        <path id="Path_6302" data-name="Path 6302" d="M63.614,41.7V40.643c-2.89,2.431-11.1,11.906-14.319,20.648C57.467,59.619,63.614,50.37,63.614,41.7" transform="translate(-27.758 -22.885)" fill="#005747"/>
        <path id="Path_6303" data-name="Path 6303" d="M45.887,4.2c1.906.552,3.795,1.017,5.963,1.763l0-5.967H28.394A123.72,123.72,0,0,1,45.887,4.2" transform="translate(-15.988)" fill="#6fd44e"/>
        <path id="Path_6304" data-name="Path 6304" d="M35.86,17.392V14.9A190.191,190.191,0,0,0,11.7,13.3c-4.729,0-8.591.195-11.7.366V28.318c0,.089,0,.177,0,.266A86.451,86.451,0,0,1,35.86,17.392" transform="translate(0 -7.489)" fill="#3bad2d"/>
        <path id="Path_6305" data-name="Path 6305" d="M37.42,26.438c-3.893.429-20,4.275-34.65,15.768A18,18,0,0,0,11.2,51.625c5.079-5.041,13.471-13.9,26.222-20.865Z" transform="translate(-1.561 -14.887)" fill="#007149"/>
      </g>
    </g>
  </g>
</svg>
