<svg xmlns="http://www.w3.org/2000/svg" width="490.405" height="524.306" viewBox="0 0 490.405 524.306">
  <g id="UHY_Subcribe_shield" data-name="UHY Subcribe shield" transform="translate(-101.797 -3956.326)">
    <path id="Path_6336" data-name="Path 6336" d="M232.929,44.992V30.8C193.508,63.914,81.552,194,37.4,313.055,148.568,290.191,232.929,164.043,232.929,44.992" transform="translate(359.273 4167.576)" fill="#fff"/>
    <path id="Path_6337" data-name="Path 6337" d="M260.392,56.866c26.018,7.884,52.036,14.192,81.207,24.441V.1H21.5C94.035,11.926,177.608,30.06,260.392,56.866" transform="translate(249.806 3956.226)" fill="#fff"/>
    <path id="Path_6338" data-name="Path 6338" d="M490.4,66.078v-33.9C356.367,14.831,247.565,10.1,160.05,10.1,95.4,10.1,42.575,12.465,0,14.831v204.2C93.822,167,257.026,85,490.4,66.078" transform="translate(101.797 4025.076)" fill="#fff"/>
    <path id="Path_6339" data-name="Path 6339" d="M475.942,20C423.118,25.519,202.359,78.343,2.1,236.028A242.127,242.127,0,0,0,117.21,364.541C186.591,295.948,301.7,174.531,475.942,79.132Z" transform="translate(116.255 4093.23)" fill="#fff"/>
  </g>
</svg>
