<svg id="UHY_Logo_White" xmlns="http://www.w3.org/2000/svg" width="297.203" height="99.674" viewBox="0 0 297.203 99.674">
  <path id="Path_6278" data-name="Path 6278" d="M271.7,0,257.232,25.37,242.974,0H220.959l26.523,43.611V69.295h19.394v-26L293.4,0Zm-76,0V25.16H170.849V0H151.559V69.295h19.289V44.135h24.846v25.16h19.289V0ZM124.617,0V36.9a13.524,13.524,0,1,1-27.047,0V0H78.7V37.426a32.394,32.394,0,0,0,64.787,0V0h-18.87Z" transform="translate(3.804 0)" fill="#fff"/>
  <path id="Path_6279" data-name="Path 6279" d="M271.7,0,257.232,25.37,242.974,0H220.959l26.523,43.611V69.295h19.394v-26L293.4,0Zm-76,0V25.16H170.849V0H151.559V69.295h19.289V44.135h24.846v25.16h19.289V0ZM124.617,0V36.9a13.524,13.524,0,1,1-27.047,0V0H78.7V37.426a32.394,32.394,0,0,0,64.787,0V0h-18.87Z" transform="translate(3.804 0)" fill="#fff"/>
  <path id="Path_6280" data-name="Path 6280" d="M63.4,32.687V30.8c-5.242,4.4-20.128,21.7-26,37.53,14.782-3.04,26-19.814,26-35.643" transform="translate(1.808 1.489)" fill="#fff"/>
  <path id="Path_6281" data-name="Path 6281" d="M53.265,7.648c3.459,1.048,6.919,1.887,10.8,3.25V.1H21.5A218.891,218.891,0,0,1,53.265,7.648" transform="translate(1.039 0.005)" fill="#fff"/>
  <path id="Path_6282" data-name="Path 6282" d="M65.206,17.543V13.035A338.416,338.416,0,0,0,21.281,10.1c-8.6,0-15.62.315-21.281.629V37.881c12.475-6.919,34.176-17.822,65.206-20.338" transform="translate(0 0.488)" fill="#fff"/>
  <path id="Path_6283" data-name="Path 6283" d="M65.1,20c-7.024.734-36.377,7.758-63,28.724A32.2,32.2,0,0,0,17.406,65.812c9.225-9.121,24.531-25.265,47.7-37.95Z" transform="translate(0.102 0.967)" fill="#fff"/>
  <path id="Path_6342" data-name="Path 6342" d="M.807,6.7a6.407,6.407,0,0,0,6.522,6.485,6.4,6.4,0,0,0,5.539-3.062L11.411,9.113a4.805,4.805,0,0,1-4.082,2.227A4.4,4.4,0,0,1,2.848,6.7,4.379,4.379,0,0,1,7.283,2.062a4.648,4.648,0,0,1,4.026,2.282l1.512-1.058A6.424,6.424,0,0,0,7.283.216,6.379,6.379,0,0,0,.807,6.7Zm18.026,6.485a4.64,4.64,0,1,0,0-9.277,4.64,4.64,0,1,0,0,9.277ZM15.938,8.547a2.895,2.895,0,1,1,5.789,0,2.895,2.895,0,1,1-5.789,0ZM27.563,13V7.981a2.284,2.284,0,0,1,2.458-2.329,2.065,2.065,0,0,1,2.189,2.329V13h1.837V7.591a3.427,3.427,0,0,0-3.739-3.683,3.18,3.18,0,0,0-2.737,1.308V4.094H25.726V13Zm11.021,0V7.981a2.284,2.284,0,0,1,2.458-2.329,2.065,2.065,0,0,1,2.189,2.329V13h1.837V7.591a3.427,3.427,0,0,0-3.739-3.683,3.18,3.18,0,0,0-2.737,1.308V4.094H36.748V13ZM47.12,8.556a4.526,4.526,0,0,0,4.667,4.629,4.59,4.59,0,0,0,4.026-2.264l-1.354-.983a3,3,0,0,1-2.672,1.521,2.628,2.628,0,0,1-2.765-2.384h6.912a4.486,4.486,0,0,0,.074-.854,4.159,4.159,0,0,0-4.286-4.314A4.477,4.477,0,0,0,47.12,8.556ZM49.068,7.7A2.589,2.589,0,0,1,51.7,5.569,2.366,2.366,0,0,1,54.143,7.7Zm13.183,5.483a4.648,4.648,0,0,0,4.119-2.421L64.988,9.79a3.106,3.106,0,0,1-2.737,1.67,2.835,2.835,0,0,1-2.867-2.922,2.818,2.818,0,0,1,2.9-2.9A3.06,3.06,0,0,1,64.96,7.313l1.419-.965a4.533,4.533,0,0,0-4.054-2.44,4.658,4.658,0,0,0-4.8,4.629A4.609,4.609,0,0,0,62.251,13.186ZM68.9,5.652v4.676a2.717,2.717,0,0,0,3.034,2.857,4.717,4.717,0,0,0,1.948-.39l-.241-1.577a4.093,4.093,0,0,1-1.447.306,1.3,1.3,0,0,1-1.457-1.419V5.652h2.811V4.094h-2.83V1.236H68.931V4.094H67.316V5.652Zm11.615,0v4.676a2.717,2.717,0,0,0,3.034,2.857A4.717,4.717,0,0,0,85.5,12.8l-.241-1.577a4.093,4.093,0,0,1-1.447.306,1.3,1.3,0,0,1-1.457-1.419V5.652h2.811V4.094h-2.83V1.236H80.546V4.094H78.932V5.652Zm10.576,7.533a4.64,4.64,0,1,0-4.731-4.639A4.6,4.6,0,0,0,91.094,13.186ZM88.2,8.547a2.895,2.895,0,1,1,5.789,0,2.895,2.895,0,1,1-5.789,0Zm14.148,8.164h1.837V11.785a3.77,3.77,0,0,0,3.173,1.4,4.375,4.375,0,0,0,4.472-4.592,4.453,4.453,0,0,0-4.472-4.685,3.77,3.77,0,0,0-3.173,1.4V4.094h-1.837Zm1.846-8.118a2.951,2.951,0,0,1,2.941-3.034,2.883,2.883,0,0,1,2.857,3.034,2.8,2.8,0,0,1-2.857,2.941A2.879,2.879,0,0,1,104.194,8.593Zm13.888,4.592a4.64,4.64,0,1,0-4.731-4.639A4.6,4.6,0,0,0,118.082,13.186Zm-2.895-4.639a2.895,2.895,0,1,1,5.789,0,2.895,2.895,0,1,1-5.789,0Zm9.1,2.579a4.245,4.245,0,0,0,3.85,2.06c1.893,0,3.525-1.048,3.525-2.672,0-1.7-1.262-2.329-3.2-2.8-1.308-.315-1.967-.5-1.967-1.178,0-.575.594-.946,1.475-.946A2.73,2.73,0,0,1,130.263,6.8L131.5,5.745a4.107,4.107,0,0,0-3.525-1.837c-1.818,0-3.293,1.039-3.293,2.653,0,1.763,1.364,2.366,3.275,2.792,1.308.3,1.855.5,1.855,1.16,0,.6-.714.983-1.67.983a2.8,2.8,0,0,1-2.486-1.475Zm8.925,0a4.245,4.245,0,0,0,3.85,2.06c1.893,0,3.525-1.048,3.525-2.672,0-1.7-1.262-2.329-3.2-2.8-1.308-.315-1.967-.5-1.967-1.178,0-.575.594-.946,1.475-.946A2.73,2.73,0,0,1,139.188,6.8l1.234-1.058A4.107,4.107,0,0,0,136.9,3.908c-1.818,0-3.293,1.039-3.293,2.653,0,1.763,1.364,2.366,3.275,2.792,1.308.3,1.855.5,1.855,1.16,0,.6-.714.983-1.67.983a2.8,2.8,0,0,1-2.486-1.475Zm9.4-10.02a1.136,1.136,0,0,0,2.273,0,1.136,1.136,0,0,0-2.273,0ZM144.662,13V4.094h-1.837V13Zm2.82,0h1.837V11.785a3.77,3.77,0,0,0,3.173,1.4A4.453,4.453,0,0,0,156.963,8.5a4.375,4.375,0,0,0-4.472-4.592,3.77,3.77,0,0,0-3.173,1.4V-.062h-1.837Zm1.846-4.5a2.879,2.879,0,0,1,2.941-2.941A2.8,2.8,0,0,1,155.126,8.5a2.883,2.883,0,0,1-2.857,3.034A2.951,2.951,0,0,1,149.328,8.5Zm9.6-7.394a1.136,1.136,0,0,0,2.273,0,1.136,1.136,0,0,0-2.273,0ZM160.98,13V4.094h-1.837V13ZM165.638-.062H163.8V13h1.837Zm2.607,1.169a1.136,1.136,0,0,0,2.273,0,1.136,1.136,0,0,0-2.273,0ZM170.295,13V4.094h-1.837V13Zm3.358-7.348v4.676a2.717,2.717,0,0,0,3.034,2.857,4.717,4.717,0,0,0,1.948-.39l-.241-1.577a4.093,4.093,0,0,1-1.447.306,1.3,1.3,0,0,1-1.457-1.419V5.652H178.3V4.094h-2.83V1.236h-1.791V4.094h-1.614V5.652Zm9.37,7.478-.195.51c-.4,1.039-.881,1.642-2.078,1.642a3.289,3.289,0,0,1-1.2-.232l-.195,1.521a3.241,3.241,0,0,0,1.475.325c2.171,0,2.941-1.113,3.655-2.765l4.268-10.038h-2.022l-2.755,7.014-2.774-7.014h-2.022Z" transform="translate(81.203 82.777)" fill="#fff"/>
</svg>
